<svg fill="#fff" height="200px" width="200px" version="1.1" id="Layer_1" xmlns="http://www.w3.org/2000/svg" xmlns:xlink="http://www.w3.org/1999/xlink" viewBox="0 0 512 512" xml:space="preserve" stroke="#fff"><g id="SVGRepo_bgCarrier" stroke-width="0"></g><g id="SVGRepo_tracerCarrier" stroke-linecap="round" stroke-linejoin="round"></g><g id="SVGRepo_iconCarrier"> <g> <g> <path d="M415.281,426.262V160.02C415.281,71.785,343.496,0,255.261,0c-88.236,0-160.02,71.785-160.02,160.02v266.242 c-15.735,8.608-25.316,23.638-25.316,40.24V512h55.023h122.691h15.246h122.691h55.023v-45.498 C440.598,449.901,431.017,434.87,415.281,426.262z M110.443,160.02c0.006-79.849,64.968-144.812,144.818-144.812 c79.849,0,144.812,64.963,144.812,144.812V419.83c-0.062-0.026-0.124-0.051-0.187-0.077c-0.21-0.087-0.421-0.175-0.635-0.266 c-0.152-0.064-0.305-0.128-0.459-0.193c-0.24-0.101-0.483-0.204-0.727-0.307c-0.119-0.051-0.239-0.101-0.36-0.153 c-0.286-0.122-0.574-0.244-0.865-0.37c-0.056-0.023-0.112-0.048-0.167-0.072c-18.477-7.947-47.37-22.22-58.456-27.746l0.021-0.27 l-4.451-1.957c-1.19-0.771-14.482-10.157-15.32-44.286c21.801-19.64,34.237-47.617,34.237-77.344v-27.252 c5.869,1.183,11.87,2.093,17.937,2.71l5.224,0.531l2.347-4.698c7.463-14.939,11.248-30.841,11.248-47.263 c0-34.762-17.365-67.565-47.645-90c-0.48-0.355-0.978-0.711-1.473-1.066c-2.061-36.276-39.433-65.279-85.088-65.279 c-45.658,0-83.031,29.006-85.089,65.284c-0.492,0.354-0.99,0.708-1.466,1.06c-30.279,22.435-47.645,55.239-47.645,90 c0,16.421,3.785,32.323,11.248,47.263l2.347,4.698l5.224-0.531c6.068-0.617,12.069-1.527,17.937-2.71v27.252 c0,29.732,12.44,57.712,34.246,77.352c-0.838,34.116-14.126,43.505-15.32,44.276l-16.949,7.441l1.142,0.412 c-0.13,0.064-0.259,0.127-0.389,0.192c-0.118,0.058-0.237,0.117-0.356,0.174c-0.283,0.139-0.567,0.279-0.855,0.42 c-0.118,0.058-0.236,0.116-0.354,0.173c-0.275,0.135-0.551,0.27-0.83,0.407c-0.15,0.074-0.303,0.148-0.454,0.222 c-0.275,0.135-0.549,0.269-0.827,0.404c-0.001,0.001-0.002,0.001-0.003,0.002c-0.651,0.318-1.313,0.642-1.981,0.967 c-0.18,0.088-0.359,0.175-0.541,0.264c-0.158,0.077-0.319,0.155-0.479,0.233c-0.303,0.148-0.606,0.295-0.912,0.444 c-0.146,0.071-0.294,0.143-0.441,0.214c-0.296,0.144-0.594,0.289-0.893,0.434c-0.191,0.092-0.381,0.186-0.573,0.278 c-0.282,0.137-0.565,0.274-0.85,0.412c-0.155,0.075-0.311,0.151-0.467,0.226c-0.358,0.173-0.717,0.347-1.078,0.521 c-0.095,0.046-0.19,0.092-0.285,0.138c-0.379,0.184-0.761,0.367-1.144,0.552c-0.112,0.054-0.223,0.107-0.336,0.161 c-0.368,0.177-0.738,0.355-1.108,0.533c-0.121,0.058-0.24,0.116-0.361,0.173c-1.956,0.94-3.939,1.889-5.931,2.836 c-0.08,0.039-0.161,0.077-0.241,0.115c-0.415,0.197-0.828,0.393-1.244,0.59c-0.094,0.045-0.19,0.089-0.284,0.135 c-0.404,0.191-0.807,0.382-1.21,0.573c-0.102,0.049-0.205,0.097-0.307,0.145c-0.42,0.198-0.838,0.395-1.257,0.593 c-0.069,0.032-0.138,0.065-0.207,0.097c-0.483,0.227-0.965,0.454-1.447,0.68c-0.003,0.001-0.006,0.003-0.009,0.004 c-2.526,1.184-5.029,2.347-7.471,3.467c-0.063,0.029-0.126,0.058-0.19,0.087c-0.406,0.186-0.809,0.37-1.211,0.554 c-0.095,0.044-0.191,0.087-0.286,0.13c-0.379,0.173-0.757,0.345-1.132,0.515c-0.098,0.045-0.196,0.089-0.294,0.133 c-0.386,0.175-0.771,0.349-1.152,0.52c-0.077,0.034-0.154,0.07-0.231,0.104c-0.414,0.187-0.824,0.371-1.233,0.554 c-0.043,0.019-0.085,0.039-0.128,0.058c-1.384,0.62-2.732,1.217-4.038,1.786c-0.03,0.013-0.061,0.026-0.091,0.04 c-0.388,0.169-0.773,0.337-1.154,0.502c-0.094,0.041-0.187,0.08-0.28,0.121c-0.313,0.136-0.625,0.27-0.933,0.401 c-0.118,0.051-0.233,0.099-0.35,0.15c-0.285,0.122-0.567,0.241-0.846,0.36c-0.124,0.053-0.247,0.104-0.37,0.156 c-0.271,0.115-0.538,0.227-0.803,0.338c-0.12,0.05-0.239,0.1-0.358,0.15c-0.096,0.04-0.19,0.078-0.284,0.118V160.02z M305.938,334.891c-1.267,1.064-2.541,2.074-3.786,3.005c-7.528,5.626-15.865,9.948-24.781,12.844 c-7.662,2.489-15.1,3.75-22.109,3.75c-7.01,0-14.447-1.261-22.108-3.749c-8.917-2.896-17.256-7.218-24.782-12.844 c-1.243-0.929-2.513-1.938-3.778-2.998c-20.064-16.826-31.57-41.65-31.57-68.109v-31.082h-0.001 c0.079-0.025,0.154-0.054,0.233-0.079c41.882-13.223,65.286-46.069,75.707-65.032c2.451-4.459,4.542-8.654,6.299-12.422 c1.756,3.767,3.849,7.963,6.298,12.421c10.42,18.964,33.827,51.813,75.713,65.035c0.076,0.024,0.15,0.053,0.226,0.077v31.082 C337.499,293.244,325.995,318.066,305.938,334.891z M316.303,392.12l-21.005,7.582c-20.818,7.513-43.338,8.958-64.816,4.355 c-5.157-1.106-10.257-2.551-15.256-4.356l-20.998-7.58c5.108-7.032,10.503-18.587,12.387-37.037 c0.94,0.581,1.89,1.143,2.847,1.692c0.222,0.128,0.447,0.248,0.669,0.374c0.866,0.489,1.739,0.963,2.618,1.426 c0.32,0.168,0.641,0.336,0.962,0.5c0.93,0.475,1.866,0.937,2.809,1.384c0.178,0.084,0.355,0.173,0.534,0.258 c1.112,0.518,2.236,1.012,3.367,1.489c0.296,0.125,0.595,0.243,0.892,0.366c0.876,0.36,1.757,0.707,2.644,1.042 c0.333,0.126,0.665,0.252,0.999,0.375c1.159,0.424,2.324,0.834,3.5,1.217c9.179,2.981,18.198,4.493,26.805,4.493 c8.607,0,17.626-1.512,26.807-4.494c1.176-0.382,2.341-0.793,3.499-1.217c0.335-0.123,0.668-0.249,1.001-0.376 c0.882-0.334,1.759-0.679,2.631-1.037c0.303-0.125,0.608-0.245,0.91-0.373c1.127-0.476,2.247-0.968,3.356-1.484 c0.185-0.086,0.367-0.178,0.552-0.266c0.937-0.443,1.865-0.901,2.788-1.373c0.328-0.167,0.654-0.338,0.98-0.509 c0.868-0.456,1.729-0.925,2.582-1.406c0.234-0.132,0.471-0.26,0.705-0.393c0.956-0.549,1.906-1.111,2.845-1.692 C305.8,373.53,311.196,385.087,316.303,392.12z M255.261,88.275c26.846,0,52.191,7.535,73.298,21.791 c1.453,0.98,2.868,1.981,4.206,2.973c26.367,19.537,41.49,47.886,41.49,77.78c0,12.303-2.492,24.279-7.413,35.672 c-6.776-0.901-13.424-2.195-19.828-3.859c-1.033-0.269-2.046-0.56-3.056-0.855c-57.234-16.995-80.845-84.363-81.471-86.188 l-7.206-22.79l-7.249,22.794c-0.578,1.701-24.01,69.121-81.449,86.179c-1.016,0.298-2.037,0.59-3.077,0.861 c-6.402,1.665-13.05,2.957-19.827,3.859c-4.921-11.394-7.413-23.369-7.413-35.672c0.001-29.893,15.124-58.243,41.492-77.78 c1.334-0.989,2.748-1.987,4.201-2.97C203.065,95.811,228.414,88.275,255.261,88.275z M187.687,89.041 c8.042-22.646,35.289-39.359,67.571-39.359c32.289,0,59.541,16.719,67.576,39.358c-1.362-0.7-2.737-1.374-4.122-2.029 c-0.335-0.158-0.674-0.306-1.01-0.461c-1.152-0.533-2.309-1.054-3.476-1.557c-0.507-0.218-1.017-0.429-1.527-0.642 c-1.032-0.43-2.068-0.849-3.112-1.255c-0.525-0.205-1.05-0.41-1.578-0.607c-1.133-0.426-2.274-0.834-3.42-1.232 c-0.414-0.144-0.823-0.294-1.238-0.434c-1.557-0.525-3.124-1.026-4.702-1.498c-0.286-0.085-0.575-0.161-0.861-0.245 c-1.298-0.379-2.602-0.744-3.912-1.088c-0.53-0.139-1.064-0.27-1.596-0.404c-1.098-0.275-2.199-0.538-3.305-0.789 c-0.565-0.128-1.129-0.254-1.697-0.375c-1.161-0.248-2.327-0.48-3.497-0.7c-0.479-0.09-0.955-0.188-1.436-0.274 c-1.64-0.293-3.287-0.564-4.943-0.803c-0.189-0.027-0.378-0.048-0.567-0.074c-1.47-0.207-2.945-0.391-4.426-0.556 c-0.543-0.06-1.089-0.11-1.634-0.165c-1.153-0.116-2.309-0.22-3.468-0.309c-0.595-0.046-1.19-0.089-1.786-0.128 c-1.177-0.077-2.358-0.138-3.541-0.189c-0.533-0.022-1.066-0.052-1.601-0.069c-1.701-0.055-3.406-0.09-5.118-0.09 c-1.712,0-3.417,0.035-5.118,0.09c-0.535,0.017-1.069,0.046-1.603,0.069c-1.181,0.051-2.36,0.112-3.536,0.189 c-0.598,0.04-1.195,0.082-1.793,0.129c-1.158,0.089-2.313,0.194-3.464,0.309c-0.545,0.055-1.092,0.104-1.636,0.165 c-1.479,0.164-2.952,0.349-4.42,0.555c-0.191,0.026-0.384,0.048-0.575,0.075c-1.655,0.239-3.3,0.51-4.938,0.803 c-0.485,0.086-0.965,0.185-1.449,0.276c-1.165,0.22-2.326,0.45-3.482,0.698c-0.571,0.122-1.14,0.249-1.708,0.377 c-1.102,0.249-2.199,0.512-3.292,0.786c-0.536,0.134-1.073,0.266-1.607,0.406c-1.305,0.343-2.603,0.706-3.894,1.083 c-0.292,0.085-0.588,0.163-0.879,0.25c-1.575,0.471-3.139,0.971-4.692,1.495c-0.425,0.143-0.845,0.298-1.267,0.444 c-1.135,0.394-2.267,0.799-3.39,1.222c-0.534,0.201-1.067,0.409-1.599,0.615c-1.035,0.404-2.064,0.819-3.088,1.246 c-0.515,0.215-1.031,0.428-1.544,0.649c-1.158,0.499-2.307,1.017-3.449,1.546c-0.345,0.159-0.692,0.311-1.036,0.473 C190.419,87.67,189.047,88.342,187.687,89.041z M145.248,496.792c8.28-6.947,26.069-14.22,48.668-14.22s40.388,7.273,48.668,14.22 H145.248z M267.939,496.792c8.28-6.947,26.069-14.22,48.668-14.22c22.599,0,40.388,7.273,48.668,14.22H267.939z M425.391,496.792 h-0.001h-41.438c-3-7.162-10.13-13.888-20.564-19.156c-13.118-6.625-29.733-10.272-46.781-10.272s-33.662,3.648-46.781,10.272 c-6.002,3.03-10.903,6.547-14.564,10.347c-3.661-3.801-8.562-7.317-14.564-10.347c-13.119-6.625-29.733-10.272-46.781-10.272 s-33.662,3.648-46.781,10.272c-10.433,5.268-17.563,11.995-20.564,19.156H85.132v-30.29c0-12.195,7.76-22.866,20.76-28.547 c0.957-0.419,1.912-0.799,2.838-1.128c17.102-6.094,60.255-27.511,72.025-33.399l29.308,10.579 c2.732,0.986,5.491,1.88,8.271,2.682c12.046,3.472,24.487,5.209,36.929,5.209s24.883-1.737,36.929-5.209 c2.78-0.801,5.539-1.695,8.271-2.682l29.308-10.579c11.756,5.882,54.895,27.296,72.024,33.399 c0.923,0.328,1.879,0.709,2.841,1.128h0.001c12.997,5.682,20.756,16.352,20.756,28.547V496.792z"></path> </g> </g> <g> <g> <polygon points="66.203,57.997 58.653,65.546 51.025,57.918 40.271,68.671 58.653,87.053 76.956,68.751 "></polygon> </g> </g> <g> <g> <polygon points="460.976,222.883 453.426,230.432 445.798,222.805 435.044,233.558 453.426,251.939 471.729,233.636 "></polygon> </g> </g> </g></svg>