<svg fill="#fff" height="200px" width="200px" version="1.1" id="Layer_1" xmlns="http://www.w3.org/2000/svg" xmlns:xlink="http://www.w3.org/1999/xlink" viewBox="0 0 512.002 512.002" xml:space="preserve" stroke="#fff"><g id="SVGRepo_bgCarrier" stroke-width="0"></g><g id="SVGRepo_tracerCarrier" stroke-linecap="round" stroke-linejoin="round"></g><g id="SVGRepo_iconCarrier"> <g> <g> <path d="M462.139,370.987l-105.038-22.543l-5.189,1.873c-3.619-6.033-10.239-21.351-11.44-53.638 c19.871-21.381,31.754-49.119,33.543-78.48c0.027-0.437,0.076-1.254,0.317-29.354c23.54-19.809,36.313-64.953,36.298-83.854 c-0.015-19.844-0.834-33.044-12.048-49.012c-14.09-20.064-32.984-23.577-51.306-24.385c-11.527-0.508-23.286-0.42-34.657-0.333 c-12.977,0.096-26.396,0.198-39.336-0.6c-14.932-0.921-28.734-6.887-43.346-13.204c-10.874-4.701-22.117-9.562-34.074-12.294 c-16.248-3.714-35.16-7.078-52.228-3.888c-20.783,3.885-35.148,16.686-42.698,38.05c-5.816,16.459-4.199,36.63,4.024,50.197 c5.706,9.414,17.258,17.858,32.113,23.627c0.32,41.082,0.836,104.165,1.018,106.642c2.115,28.757,13.959,55.929,33.438,76.892 c-1.196,32.071-7.805,47.449-11.492,53.617l-5.137-1.855l-104.76,22.479l-0.278,0.065c-26.241,6.668-44.567,30.234-44.567,57.31 v83.705h151.515h57.787h82.804h57.787h151.515v-83.705C506.707,401.222,488.381,377.655,462.139,370.987z M342.054,370.116 l3.328-1.189l-3.328,9.925V370.116z M117.999,81.62c-5.798-9.565-6.928-25.216-2.688-37.217 c11.402-32.264,39.094-33.08,77.158-24.381c10.59,2.42,20.708,6.794,31.42,11.425c15.172,6.56,30.861,13.342,48.456,14.427 c13.465,0.83,27.153,0.727,40.388,0.628c11.178-0.084,22.736-0.172,33.872,0.319c17.594,0.775,29.698,3.956,39.502,17.916 c8.829,12.571,9.266,22.967,9.279,40.263c0.01,13.673-8.155,42.151-20.871,60.761l0.264-33.761 c0.07-8.944-3.852-17.327-10.762-23.001c-0.594-0.488-1.209-0.941-1.833-1.378c-0.146-0.103-0.294-0.204-0.441-0.305 c-0.622-0.419-1.253-0.819-1.9-1.187c-0.07-0.04-0.143-0.075-0.213-0.115c-0.597-0.333-1.205-0.64-1.821-0.93 c-0.156-0.073-0.31-0.147-0.467-0.217c-0.669-0.3-1.345-0.578-2.032-0.827c-0.121-0.044-0.243-0.08-0.364-0.123 c-0.608-0.211-1.222-0.4-1.842-0.571c-0.155-0.043-0.311-0.088-0.467-0.129c-0.702-0.181-1.411-0.335-2.125-0.463 c-0.155-0.027-0.312-0.05-0.467-0.074c-0.628-0.102-1.26-0.184-1.895-0.245c-0.141-0.013-0.28-0.031-0.422-0.044 c-0.727-0.059-1.456-0.088-2.188-0.094c-0.07,0-0.139-0.009-0.209-0.009c-0.212,0-0.426,0.011-0.638,0.016 c-0.209,0.004-0.42,0.007-0.629,0.016c-0.33,0.014-0.661,0.039-0.992,0.064c-0.199,0.015-0.397,0.026-0.596,0.046 c-0.361,0.035-0.721,0.082-1.083,0.13c-0.168,0.022-0.336,0.039-0.504,0.064c-0.528,0.08-1.057,0.172-1.583,0.28 c-15.591,3.218-42.692,7.051-83.316,7.051c-0.069,0-0.14,0-0.209,0c-31.4-0.01-58.519-0.018-89.252-4.821 c-7.002-1.094-13.556-2.639-19.483-4.592C126.667,93.83,119.662,84.362,117.999,81.62z M153.304,218.737 c-0.141-3.301-0.58-54.224-0.946-100.862c0.044,0.01,0.089,0.018,0.132,0.028c1.806,0.431,3.645,0.831,5.516,1.202 c0.075,0.015,0.149,0.031,0.226,0.046c1.948,0.382,3.929,0.733,5.941,1.047c31.901,4.985,59.566,4.994,91.601,5.003 c0.076,0,0.146,0,0.223,0c29.439,0,55.374-1.897,77.259-5.645c3.126-0.536,6.17-1.109,9.13-1.719 c4.251-0.878,8.612,0.195,11.961,2.945c3.333,2.738,5.226,6.784,5.192,11.102l-0.415,53.084l-0.001,0.139 c-0.225,26.534-0.3,31.601-0.32,32.161c-1.634,26.811-12.821,52.075-31.497,71.138c-3.917,3.999-8.131,7.691-12.52,10.972 c-9.421,7.043-19.859,12.452-31.019,16.078c-9.607,3.121-18.948,4.703-27.762,4.703c-8.815,0-18.156-1.582-27.761-4.701 c-11.161-3.625-21.598-9.034-31.02-16.077c-1.099-0.821-2.186-1.668-3.26-2.539c-3.222-2.612-6.326-5.437-9.261-8.433 C166.4,269.73,155.251,244.987,153.304,218.737z M266.512,373.292l-10.509,3.879l-10.509-3.879l-67.636-24.966 c3.325-8.496,6.549-20.823,8.12-38.356c0.7,0.55,1.406,1.09,2.117,1.621c10.763,8.045,22.686,14.224,35.44,18.365 c11.129,3.615,22.053,5.447,32.469,5.447c10.416,0,21.341-1.833,32.471-5.448c12.753-4.142,24.675-10.322,35.438-18.366 c0.709-0.53,1.416-1.071,2.117-1.62c1.571,17.536,4.794,29.86,8.12,38.357L266.512,373.292z M326.81,367.284v8.279v27.744 l-48.797-18.011L326.81,367.284z M233.991,385.294l-48.797,18.011v-27.759v-8.264L233.991,385.294z M169.951,370.106v8.747 l-3.331-9.936L169.951,370.106z M20.541,496.757v-68.46c0-20.05,13.54-37.508,32.946-42.501l87.876-18.856l-31.702,71.796 l22.843,14.87l-14.452,19.202l23.685,23.949H20.541z M163.176,496.758l-25.025-25.305l16.345-21.72l-25.653-16.701l24.554-55.607 l40.016,119.332H163.176z M209.489,496.758l-25.712-76.679l72.227-26.659l72.227,26.659l-25.712,76.679H209.489z M348.829,496.758 h-30.235l40.016-119.332l24.554,55.607l-25.654,16.701l16.346,21.72L348.829,496.758z M491.465,496.758h-0.001H370.268 l23.685-23.949l-14.452-19.202l22.844-14.87l-31.702-71.796l87.874,18.855c19.406,4.995,32.948,22.452,32.948,42.502V496.758z"></path> </g> </g> <g> <g> <polygon points="457.745,139.098 450.177,146.664 442.531,139.018 431.753,149.797 450.177,168.221 468.523,149.876 "></polygon> </g> </g> <g> <g> <polygon points="81.983,271.193 74.415,278.76 66.77,271.115 55.991,281.893 74.415,300.317 92.761,281.972 "></polygon> </g> </g> </g></svg>